<svg width="45" height="45" viewBox="0 0 45 45" fill="none" xmlns="http://www.w3.org/2000/svg">
<g id="clarity:dollar-solid" clip-path="url(#clip0_67_30)">
<path id="Vector" d="M22.5 2.5C18.5444 2.5 14.6776 3.67298 11.3886 5.87061C8.09962 8.06824 5.53617 11.1918 4.02242 14.8463C2.50867 18.5009 2.1126 22.5222 2.8843 26.4018C3.65601 30.2814 5.56082 33.8451 8.35787 36.6421C11.1549 39.4392 14.7186 41.344 18.5982 42.1157C22.4778 42.8874 26.4992 42.4913 30.1537 40.9776C33.8082 39.4638 36.9318 36.9004 39.1294 33.6114C41.327 30.3224 42.5 26.4556 42.5 22.5C42.5 17.1957 40.3929 12.1086 36.6421 8.35786C32.8914 4.60714 27.8043 2.5 22.5 2.5ZM32.0625 29.4875C30.8125 33.2375 27.55 34.2875 24.6875 34.4875V36.9875C24.6875 37.4019 24.5229 37.7993 24.2299 38.0924C23.9368 38.3854 23.5394 38.55 23.125 38.55C22.7106 38.55 22.3132 38.3854 22.0202 38.0924C21.7271 37.7993 21.5625 37.4019 21.5625 36.9875V34.4875C18.6921 34.2184 15.9694 33.0901 13.75 31.25C13.5998 31.1096 13.4787 30.9411 13.3937 30.7539C13.3086 30.5668 13.2613 30.3647 13.2543 30.1593C13.2473 29.9538 13.2809 29.749 13.3531 29.5565C13.4253 29.3641 13.5347 29.1877 13.675 29.0375C13.8154 28.8873 13.9839 28.7662 14.1711 28.6812C14.3582 28.5961 14.5603 28.5487 14.7657 28.5418C14.9712 28.5348 15.176 28.5684 15.3685 28.6406C15.5609 28.7128 15.7373 28.8221 15.8875 28.9625C17.5234 30.2799 19.4918 31.1192 21.575 31.3875V23.5375C19.9149 23.2817 18.3267 22.6814 16.9125 21.775C15.7237 21.0294 14.8339 19.8908 14.3977 18.5571C13.9615 17.2234 14.0065 15.7789 14.525 14.475C15.2625 12.5875 17.55 10.4375 21.575 10.0875V7.8125C21.575 7.3981 21.7396 7.00067 22.0327 6.70765C22.3257 6.41462 22.7231 6.25 23.1375 6.25C23.5519 6.25 23.9493 6.41462 24.2424 6.70765C24.5354 7.00067 24.7 7.3981 24.7 7.8125V10.1375C26.9344 10.385 29.0555 11.2508 30.825 12.6375C31.0703 12.926 31.2024 13.2938 31.1968 13.6725C31.1912 14.0511 31.0483 14.4149 30.7946 14.6961C30.5409 14.9772 30.1938 15.1567 29.8177 15.2011C29.4416 15.2455 29.0622 15.1519 28.75 14.9375C27.5565 14.0646 26.1648 13.5019 24.7 13.3V20.9625C25.45 21.125 26.25 21.3 27.0875 21.5625C28.0563 21.8041 28.9653 22.2414 29.7585 22.8477C30.5518 23.4539 31.2125 24.2162 31.7 25.0875C32.3962 26.449 32.5264 28.0304 32.0625 29.4875Z" fill="white"/>
<path id="Vector_2" d="M26.15 24.55C25.65 24.4 25.1625 24.275 24.6875 24.175V31.375C27.1875 31.125 28.525 30.25 29.1 28.5C29.2917 27.8418 29.2246 27.1353 28.9125 26.525C28.6075 26.0278 28.2058 25.5969 27.7313 25.2577C27.2568 24.9184 26.7191 24.6778 26.15 24.55Z" fill="white"/>
<path id="Vector_3" d="M17.425 15.6C17.1642 16.248 17.1471 16.9686 17.377 17.6283C17.6068 18.2879 18.068 18.8419 18.675 19.1875C19.5588 19.7537 20.5434 20.1442 21.575 20.3375V13.1875C18.95 13.5 17.7375 14.8 17.425 15.6Z" fill="white"/>
</g>
<defs>
<clipPath id="clip0_67_30">
<rect width="45" height="45" fill="white"/>
</clipPath>
</defs>
</svg>
