<svg width="42" height="42" viewBox="0 0 42 42" fill="none" xmlns="http://www.w3.org/2000/svg">
<g id="clarity:coin-bag-solid" clip-path="url(#clip0_67_107)">
<path id="Vector" d="M29.0384 30.3333H38.2084C37.4384 20.1717 33.0634 13.86 27.4517 10.1267L30.0067 4.55C30.084 4.37304 30.1161 4.17968 30.1002 3.98726C30.0843 3.79484 30.0209 3.60937 29.9156 3.44749C29.8104 3.2856 29.6667 3.15236 29.4973 3.05972C29.3279 2.96707 29.1381 2.91792 28.9451 2.91666H12.9501C12.757 2.91792 12.5672 2.96707 12.3978 3.05972C12.2284 3.15236 12.0847 3.2856 11.9795 3.44749C11.8742 3.60937 11.8108 3.79484 11.7949 3.98726C11.779 4.17968 11.8112 4.37304 11.8884 4.55L13.2884 7.58333H25.0951L24.0451 9.91666H21.8867C22.5459 11.6891 23.0304 13.5217 23.3334 15.3883C23.5296 16.5462 23.6543 17.7151 23.7067 18.8883L21.8634 20.1833C21.8684 18.6743 21.7435 17.1676 21.4901 15.68C21.1677 13.7001 20.6116 11.7655 19.8334 9.91666H18.6667C17.59 11.2771 16.6226 12.7205 15.7734 14.2333C15.0887 15.5311 14.5074 16.8808 14.0351 18.27L12.4367 17.2083C12.9033 15.8657 13.4768 14.5626 14.1517 13.3117C14.8337 12.1386 15.5816 11.0051 16.3917 9.91666H14.3501L14.4434 10.115C8.26006 14.2333 3.55839 21.4667 3.55839 33.5417C3.54262 33.7955 3.57731 34.0499 3.66044 34.2903C3.74358 34.5306 3.87351 34.7521 4.04274 34.9419C4.21196 35.1318 4.41713 35.2862 4.64638 35.3963C4.87563 35.5064 5.12443 35.57 5.37839 35.5833H14.7117C14.311 35.1662 14.0342 34.6458 13.9126 34.0803C13.7909 33.5148 13.8291 32.9266 14.0229 32.3816C14.2167 31.8366 14.5584 31.3563 15.0098 30.9945C15.4611 30.6328 16.0043 30.4038 16.5784 30.3333C16.299 29.8595 16.15 29.3201 16.1467 28.77C16.1467 27.9346 16.4786 27.1334 17.0693 26.5426C17.6601 25.9519 18.4613 25.62 19.2967 25.62H26.2967C27.1322 25.62 27.9334 25.9519 28.5241 26.5426C29.1148 27.1334 29.4467 27.9346 29.4467 28.77C29.4527 29.3182 29.3117 29.8581 29.0384 30.3333Z" fill="white"/>
<path id="Vector_2" d="M25.2 33.25C25.2 32.9406 25.0771 32.6438 24.8583 32.425C24.6395 32.2062 24.3428 32.0833 24.0334 32.0833H17.0334C16.7239 32.0833 16.4272 32.2062 16.2084 32.425C15.9896 32.6438 15.8667 32.9406 15.8667 33.25C15.8667 33.5594 15.9896 33.8562 16.2084 34.075C16.4272 34.2937 16.7239 34.4167 17.0334 34.4167H24.0334C24.3428 34.4167 24.6395 34.2937 24.8583 34.075C25.0771 33.8562 25.2 33.5594 25.2 33.25Z" fill="white"/>
<path id="Vector_3" d="M26.2967 27.4167H19.2967C18.9873 27.4167 18.6905 27.5396 18.4717 27.7584C18.2529 27.9772 18.13 28.2739 18.13 28.5833C18.13 28.8928 18.2529 29.1895 18.4717 29.4083C18.6905 29.6271 18.9873 29.75 19.2967 29.75H26.2967C26.6061 29.75 26.9028 29.6271 27.1216 29.4083C27.3404 29.1895 27.4633 28.8928 27.4633 28.5833C27.4633 28.2739 27.3404 27.9772 27.1216 27.7584C26.9028 27.5396 26.6061 27.4167 26.2967 27.4167Z" fill="white"/>
<path id="Vector_4" d="M25.6667 36.75H18.6667C18.3572 36.75 18.0605 36.8729 17.8417 37.0917C17.6229 37.3105 17.5 37.6072 17.5 37.9167C17.5 38.2261 17.6229 38.5228 17.8417 38.7416C18.0605 38.9604 18.3572 39.0833 18.6667 39.0833H25.6667C25.9761 39.0833 26.2728 38.9604 26.4916 38.7416C26.7104 38.5228 26.8333 38.2261 26.8333 37.9167C26.8333 37.6072 26.7104 37.3105 26.4916 37.0917C26.2728 36.8729 25.9761 36.75 25.6667 36.75Z" fill="white"/>
<path id="Vector_5" d="M38.15 36.75H29.9833C29.6739 36.75 29.3772 36.8729 29.1584 37.0917C28.9396 37.3105 28.8167 37.6072 28.8167 37.9167C28.8167 38.2261 28.9396 38.5228 29.1584 38.7416C29.3772 38.9604 29.6739 39.0833 29.9833 39.0833H38.15C38.4594 39.0833 38.7561 38.9604 38.9749 38.7416C39.1937 38.5228 39.3167 38.2261 39.3167 37.9167C39.3167 37.6072 39.1937 37.3105 38.9749 37.0917C38.7561 36.8729 38.4594 36.75 38.15 36.75Z" fill="white"/>
<path id="Vector_6" d="M39.3166 32.0833H31.1499C30.8405 32.0833 30.5438 32.2062 30.325 32.425C30.1062 32.6438 29.9833 32.9406 29.9833 33.25C29.9833 33.5594 30.1062 33.8562 30.325 34.075C30.5438 34.2937 30.8405 34.4167 31.1499 34.4167H39.3166C39.626 34.4167 39.9228 34.2937 40.1416 34.075C40.3604 33.8562 40.4833 33.5594 40.4833 33.25C40.4833 32.9406 40.3604 32.6438 40.1416 32.425C39.9228 32.2062 39.626 32.0833 39.3166 32.0833Z" fill="white"/>
</g>
<defs>
<clipPath id="clip0_67_107">
<rect width="42" height="42" fill="white"/>
</clipPath>
</defs>
</svg>
