<svg width="36" height="32" viewBox="0 0 36 32" fill="none" xmlns="http://www.w3.org/2000/svg">
<g id="fluent:cart-16-regular">
<path id="Vector" d="M5.625 4C5.32663 4 5.04048 4.10536 4.82951 4.29289C4.61853 4.48043 4.5 4.73478 4.5 5C4.5 5.26522 4.61853 5.51957 4.82951 5.70711C5.04048 5.89464 5.32663 6 5.625 6H6.1785C6.42279 6.00038 6.6603 6.07142 6.85514 6.2024C7.04998 6.33338 7.19157 6.51717 7.2585 6.726L10.827 17.826C11.0288 18.4524 11.4546 19.0034 12.04 19.3956C12.6253 19.7878 13.3385 20 14.0715 20H24.3518C25.0264 20.0001 25.6856 19.8205 26.2443 19.4843C26.803 19.1481 27.2355 18.6708 27.486 18.114L30.8025 10.742C30.9388 10.4387 30.9895 10.1102 30.9501 9.78546C30.9107 9.46068 30.7824 9.14943 30.5764 8.87892C30.3704 8.6084 30.093 8.38685 29.7684 8.23364C29.4438 8.08042 29.082 8.00021 28.7145 8H10.008L9.42075 6.176C9.21943 5.54955 8.79416 4.99837 8.20922 4.60579C7.62427 4.21321 6.91145 4.00057 6.1785 4H5.625ZM12.9915 17.274L10.6515 10H28.7123L25.3958 17.372C25.3122 17.5574 25.1681 17.7163 24.982 17.8282C24.7959 17.9401 24.5764 18 24.3518 18H14.0715C13.8272 17.9996 13.5897 17.9286 13.3949 17.7976C13.2 17.6666 13.0584 17.4828 12.9915 17.274ZM14.625 28C15.0682 28 15.5071 27.9224 15.9166 27.7716C16.326 27.6209 16.6981 27.3999 17.0115 27.1213C17.3249 26.8427 17.5735 26.512 17.7431 26.1481C17.9127 25.7841 18 25.394 18 25C18 24.606 17.9127 24.2159 17.7431 23.8519C17.5735 23.488 17.3249 23.1573 17.0115 22.8787C16.6981 22.6001 16.326 22.3791 15.9166 22.2284C15.5071 22.0776 15.0682 22 14.625 22C13.7299 22 12.8715 22.3161 12.2385 22.8787C11.6056 23.4413 11.25 24.2044 11.25 25C11.25 25.7956 11.6056 26.5587 12.2385 27.1213C12.8715 27.6839 13.7299 28 14.625 28ZM14.625 26C14.3266 26 14.0405 25.8946 13.8295 25.7071C13.6185 25.5196 13.5 25.2652 13.5 25C13.5 24.7348 13.6185 24.4804 13.8295 24.2929C14.0405 24.1054 14.3266 24 14.625 24C14.9234 24 15.2095 24.1054 15.4205 24.2929C15.6315 24.4804 15.75 24.7348 15.75 25C15.75 25.2652 15.6315 25.5196 15.4205 25.7071C15.2095 25.8946 14.9234 26 14.625 26ZM23.625 28C24.0682 28 24.5071 27.9224 24.9166 27.7716C25.326 27.6209 25.6981 27.3999 26.0115 27.1213C26.3249 26.8427 26.5735 26.512 26.7431 26.1481C26.9127 25.7841 27 25.394 27 25C27 24.606 26.9127 24.2159 26.7431 23.8519C26.5735 23.488 26.3249 23.1573 26.0115 22.8787C25.6981 22.6001 25.326 22.3791 24.9166 22.2284C24.5071 22.0776 24.0682 22 23.625 22C22.7299 22 21.8715 22.3161 21.2385 22.8787C20.6056 23.4413 20.25 24.2044 20.25 25C20.25 25.7956 20.6056 26.5587 21.2385 27.1213C21.8715 27.6839 22.7299 28 23.625 28ZM23.625 26C23.3266 26 23.0405 25.8946 22.8295 25.7071C22.6185 25.5196 22.5 25.2652 22.5 25C22.5 24.7348 22.6185 24.4804 22.8295 24.2929C23.0405 24.1054 23.3266 24 23.625 24C23.9234 24 24.2095 24.1054 24.4205 24.2929C24.6315 24.4804 24.75 24.7348 24.75 25C24.75 25.2652 24.6315 25.5196 24.4205 25.7071C24.2095 25.8946 23.9234 26 23.625 26Z" fill="white"/>
</g>
</svg>
