<svg width="45" height="36" viewBox="0 0 45 36" fill="none" xmlns="http://www.w3.org/2000/svg">
<g id="mdi:piggy-bank-outline">
<path id="Vector" d="M28.125 15C28.125 14.175 28.9688 13.5 30 13.5C31.0312 13.5 31.875 14.175 31.875 15C31.875 15.825 31.0312 16.5 30 16.5C28.9688 16.5 28.125 15.825 28.125 15ZM15 13.5H24.375V10.5H15V13.5ZM41.25 11.25V21.705L35.9625 23.115L32.8125 31.5H22.5V28.5H18.75V31.5H8.4375C8.4375 31.5 3.75 18.81 3.75 14.25C3.75 9.69 8.3625 6 14.0625 6H23.4375C25.1437 4.185 27.8625 3 30.9375 3C31.4009 3.00008 31.857 3.09186 32.2652 3.26717C32.6735 3.44248 33.0212 3.69586 33.2774 4.00475C33.5335 4.31363 33.6902 4.66841 33.7334 5.03748C33.7766 5.40655 33.705 5.77844 33.525 6.12C33.2625 6.63 33.0375 7.215 32.925 7.845L37.1813 11.25H41.25ZM37.5 14.25H35.625L29.0625 9C29.0625 8.025 29.2313 7.065 29.55 6.135C27.7313 6.51 26.25 7.59 25.6313 9H14.0625C10.4437 9 7.5 11.355 7.5 14.25C7.5 17.07 9.7875 24.225 11.25 28.5H15V25.5H26.25V28.5H30L32.925 20.775L37.5 19.545V14.25Z" fill="white"/>
</g>
</svg>
