<svg width="34" height="40" viewBox="0 0 34 40" fill="none" xmlns="http://www.w3.org/2000/svg">
<path id="Vector" fill-rule="evenodd" clip-rule="evenodd" d="M4.85714 0C3.56895 0 2.33351 0.526784 1.42262 1.46447C0.511733 2.40215 0 3.67392 0 5V40L8.5 35L17 40L25.5 35L34 40V5C34 3.67392 33.4883 2.40215 32.5774 1.46447C31.6665 0.526784 30.4311 0 29.1429 0H4.85714ZM10.9286 7.5C9.96243 7.5 9.03585 7.89509 8.35268 8.59835C7.66951 9.30161 7.28571 10.2554 7.28571 11.25C7.28571 12.2446 7.66951 13.1984 8.35268 13.9017C9.03585 14.6049 9.96243 15 10.9286 15C11.8947 15 12.8213 14.6049 13.5045 13.9017C14.1876 13.1984 14.5714 12.2446 14.5714 11.25C14.5714 10.2554 14.1876 9.30161 13.5045 8.59835C12.8213 7.89509 11.8947 7.5 10.9286 7.5ZM26.0027 8.2325C25.5473 7.76382 24.9297 7.50053 24.2857 7.50053C23.6417 7.50053 23.0241 7.76382 22.5687 8.2325L7.99729 23.2325C7.76533 23.4631 7.58032 23.739 7.45304 24.044C7.32576 24.349 7.25877 24.677 7.25596 25.009C7.25316 25.3409 7.31461 25.6701 7.43672 25.9774C7.55883 26.2846 7.73916 26.5638 7.96718 26.7985C8.19521 27.0332 8.46636 27.2189 8.76483 27.3446C9.06329 27.4703 9.38308 27.5335 9.70555 27.5306C10.028 27.5277 10.3467 27.4588 10.643 27.3278C10.9393 27.1967 11.2073 27.0063 11.4313 26.7675L26.0027 11.7675C26.458 11.2987 26.7138 10.6629 26.7138 10C26.7138 9.33709 26.458 8.70132 26.0027 8.2325ZM23.0714 20C22.1053 20 21.1787 20.3951 20.4955 21.0983C19.8124 21.8016 19.4286 22.7554 19.4286 23.75C19.4286 24.7446 19.8124 25.6984 20.4955 26.4017C21.1787 27.1049 22.1053 27.5 23.0714 27.5C24.0376 27.5 24.9641 27.1049 25.6473 26.4017C26.3305 25.6984 26.7143 24.7446 26.7143 23.75C26.7143 22.7554 26.3305 21.8016 25.6473 21.0983C24.9641 20.3951 24.0376 20 23.0714 20Z" fill="white"/>
</svg>
